<?xml version="1.0" standalone="no"?>
<!DOCTYPE svg PUBLIC "-//W3C//DTD SVG 20010904//EN"
 "http://www.w3.org/TR/2001/REC-SVG-20010904/DTD/svg10.dtd">
<svg version="1.0" xmlns="http://www.w3.org/2000/svg"
 width="960.000000pt" height="960.000000pt" viewBox="0 0 960.000000 960.000000"
 preserveAspectRatio="xMidYMid meet">

<g transform="translate(0.000000,960.000000) scale(0.100000,-0.100000)"
fill="#000000" stroke="none">
<path d="M1500 6071 c-134 -44 -221 -150 -269 -331 -28 -107 -34 -202 -21
-315 24 -200 109 -410 233 -579 61 -81 264 -296 280 -296 5 0 -18 28 -50 63
-107 112 -153 164 -153 172 0 4 54 5 119 2 108 -6 120 -5 124 11 3 9 29 117
58 240 29 122 56 222 59 222 4 0 14 -26 23 -57 41 -140 88 -304 108 -373 l22
-75 63 134 c35 73 64 138 64 142 0 5 4 9 9 9 11 0 12 -4 56 -235 20 -104 48
-253 64 -330 27 -137 28 -139 39 -100 6 22 23 85 37 140 15 55 40 149 56 208
16 60 32 113 35 119 4 5 29 -12 59 -42 l52 -51 59 66 59 66 98 -3 97 -3 -48
-80 c-154 -258 -387 -498 -626 -644 -217 -133 -482 -218 -746 -240 l-105 -8
89 -2 c281 -4 646 113 903 291 218 150 424 374 560 611 l45 77 2694 0 2694 0
0 25 0 25 -2674 0 c-1471 0 -2677 3 -2679 8 -3 4 11 48 30 97 59 151 84 266
90 405 10 230 -45 384 -177 503 -75 68 -129 90 -221 91 -72 1 -79 -1 -133 -37
-87 -58 -112 -102 -294 -524 -15 -34 -29 -63 -32 -63 -3 0 -32 56 -64 124
-120 257 -261 432 -405 503 -69 34 -85 38 -166 40 -49 1 -101 -1 -115 -6z
m243 -85 c122 -58 238 -198 350 -422 54 -108 119 -263 132 -317 4 -15 11 -29
15 -32 7 -4 92 183 235 519 42 97 80 153 137 199 90 72 249 14 340 -125 71
-107 82 -154 83 -333 0 -121 -4 -176 -18 -226 -25 -96 -71 -228 -96 -276 l-21
-43 -120 0 -119 0 -42 -50 c-23 -27 -47 -50 -53 -50 -7 0 -36 25 -66 55 -30
30 -59 55 -65 55 -5 0 -28 -69 -49 -152 -21 -84 -44 -169 -51 -188 l-12 -35
-11 50 c-6 28 -26 127 -43 220 -17 94 -41 219 -53 280 l-22 109 -21 -49 c-69
-160 -126 -268 -133 -254 -4 8 -37 118 -74 244 -36 127 -71 248 -79 270 -13
36 -14 37 -19 15 -44 -192 -141 -589 -147 -600 -5 -8 -16 -15 -25 -14 -9 0
-63 1 -120 2 l-105 2 -45 73 c-58 93 -120 240 -148 354 -33 130 -32 357 1 463
32 104 63 160 115 213 61 60 110 77 211 74 63 -3 93 -10 138 -31z"/>
<path d="M5233 5355 c-13 -41 -11 -42 28 -14 35 25 38 49 6 49 -18 0 -26 -8
-34 -35z"/>
<path d="M6652 5308 c5 -35 7 -102 5 -150 l-4 -88 39 0 c33 0 39 3 34 16 -3 9
-6 76 -6 150 l0 134 -38 0 -39 0 9 -62z"/>
<path d="M3468 5210 l-3 -140 45 0 45 0 -3 140 -3 140 -39 0 -39 0 -3 -140z"/>
<path d="M4158 5224 c4 -140 -1 -186 -24 -209 -14 -13 -14 -15 1 -15 24 0 73
28 84 48 5 10 11 81 12 158 l2 139 -39 3 -39 3 3 -127z"/>
<path d="M5670 5325 c0 -14 5 -24 11 -22 6 1 28 -36 48 -83 20 -47 43 -98 52
-114 l16 -30 22 48 c23 53 25 63 13 68 -4 2 -23 38 -42 81 l-34 77 -43 0 c-39
0 -43 -2 -43 -25z"/>
<path d="M5908 5343 c-14 -4 -16 -21 -15 -139 l1 -135 39 3 38 3 0 135 c0 134
0 135 -23 137 -13 0 -30 -1 -40 -4z"/>
<path d="M7255 5196 c0 -137 -2 -156 -19 -175 -19 -21 -19 -21 0 -21 30 0 83
37 89 62 2 13 6 83 7 156 l3 132 -40 0 -40 0 0 -154z"/>
<path d="M3628 5315 c18 -23 22 -40 22 -107 0 -56 -5 -86 -16 -103 -21 -33 -3
-33 43 -2 37 25 53 61 53 121 0 53 -40 103 -90 113 l-34 6 22 -28z"/>
<path d="M3805 5272 l-30 -3 2 -97 1 -97 49 -2 c26 -1 42 0 36 3 -9 4 -13 34
-13 99 0 52 -3 95 -7 97 -5 2 -21 2 -38 0z"/>
<path d="M3877 5274 c-14 -14 -7 -62 9 -68 24 -9 45 13 42 43 -3 26 -35 41
-51 25z"/>
<path d="M4309 5251 c-24 -25 -29 -37 -29 -81 0 -41 5 -56 25 -75 13 -14 34
-25 47 -25 17 0 19 3 10 12 -15 15 -16 152 -2 179 17 31 -16 24 -51 -10z"/>
<path d="M4396 5258 c10 -33 5 -160 -7 -174 -9 -11 -7 -14 8 -14 90 0 107 186
17 203 -21 4 -24 1 -18 -15z"/>
<path d="M4588 5274 c18 -9 17 -174 -2 -174 -22 0 -28 31 -10 57 15 24 15 25
-8 18 -48 -14 -69 -35 -66 -63 4 -34 48 -53 79 -34 15 10 24 10 34 2 15 -12
62 -10 58 3 -2 4 -3 40 -3 80 0 85 -11 105 -60 112 -19 3 -29 3 -22 -1z"/>
<path d="M4739 5251 c-24 -25 -29 -37 -29 -81 0 -41 5 -56 25 -75 13 -14 36
-25 50 -25 27 0 34 14 12 23 -20 7 -21 124 -3 160 14 25 14 27 -5 27 -11 0
-34 -13 -50 -29z"/>
<path d="M4868 5272 l-28 -3 -2 -87 c0 -48 0 -99 1 -114 1 -15 -3 -36 -9 -48
-10 -19 -8 -20 32 -20 l43 0 -3 107 c-4 175 -3 168 -34 165z"/>
<path d="M4985 5272 l-30 -3 4 -87 c1 -48 8 -93 13 -99 12 -15 78 -18 78 -4 0
5 -4 11 -10 13 -5 2 -10 42 -11 91 -1 48 -4 89 -8 90 -3 1 -19 1 -36 -1z"/>
<path d="M5105 5272 l-30 -3 1 -97 1 -97 35 -3 34 -3 -3 93 c-5 119 -3 113
-38 110z"/>
<path d="M5232 5272 l-32 -3 6 -78 c4 -51 2 -85 -5 -99 -11 -21 -10 -22 39
-22 39 0 49 3 43 13 -4 6 -10 53 -13 102 l-5 90 -33 -3z"/>
<path d="M5364 5272 l-31 -3 0 -88 c0 -48 -3 -93 -7 -99 -5 -9 6 -12 36 -12
l43 0 -3 83 c-4 128 -3 122 -38 119z"/>
<path d="M5432 5271 c-11 -7 -11 -9 2 -14 13 -5 16 -24 16 -97 l0 -90 38 0 37
0 -5 95 c-5 100 -12 115 -55 115 -11 0 -26 -4 -33 -9z"/>
<path d="M6049 5251 c-24 -25 -29 -38 -29 -79 0 -57 20 -88 64 -98 26 -6 27
-5 17 14 -14 26 -14 147 -1 173 17 31 -16 24 -51 -10z"/>
<path d="M6137 5253 c4 -16 7 -50 7 -78 0 -27 -3 -62 -7 -77 -10 -36 14 -38
48 -3 21 20 25 34 25 79 0 48 -3 57 -31 80 -39 33 -51 33 -42 -1z"/>
<path d="M6357 5274 c-14 -14 -7 -62 9 -68 24 -9 45 13 42 43 -3 26 -35 41
-51 25z"/>
<path d="M6518 5268 c18 -18 16 -168 -2 -168 -21 0 -26 36 -8 61 15 21 15 22
-14 15 -41 -11 -65 -36 -62 -64 4 -37 30 -49 70 -34 21 8 36 8 42 2 6 -6 20
-10 33 -10 22 0 23 3 23 85 0 95 -16 125 -67 125 -21 0 -24 -3 -15 -12z"/>
<path d="M6820 5273 c-60 -24 -77 -131 -29 -182 24 -25 75 -28 107 -5 30 21
28 31 -5 27 -16 -2 -34 1 -42 6 -19 13 -24 99 -7 133 15 29 9 34 -24 21z"/>
<path d="M6876 5244 c5 -26 3 -39 -7 -45 -10 -6 -2 -9 24 -9 32 0 37 3 37 23
-1 26 -18 51 -43 60 -16 6 -17 3 -11 -29z"/>
<path d="M6985 5255 c-14 -13 -25 -29 -25 -35 0 -6 19 -31 41 -55 32 -34 40
-51 37 -70 -4 -21 -1 -25 18 -25 25 0 64 35 64 58 0 8 -20 35 -45 60 -47 48
-53 60 -33 80 9 9 7 12 -10 12 -13 0 -34 -11 -47 -25z"/>
<path d="M7434 5270 c-35 -14 -54 -50 -54 -101 0 -63 28 -99 78 -99 39 0 49 5
70 32 12 15 11 17 -20 12 -48 -8 -60 10 -56 88 2 48 7 63 18 63 10 0 16 -12
18 -38 3 -35 6 -38 30 -35 22 2 27 8 24 28 -5 48 -56 71 -108 50z"/>
<path d="M7615 5272 l-30 -3 0 -99 0 -100 35 0 35 0 0 99 c0 55 -2 101 -5 103
-3 2 -18 2 -35 0z"/>
<path d="M7677 5253 c-6 -28 16 -57 37 -50 37 12 29 69 -11 75 -15 2 -22 -4
-26 -25z"/>
<path d="M7803 5268 c-24 -12 -53 -64 -53 -96 0 -60 37 -102 89 -102 36 0 55
12 76 48 6 12 3 12 -15 2 -33 -18 -66 -5 -73 28 -8 39 -1 102 13 116 16 16 32
-11 27 -46 -3 -25 0 -28 25 -28 23 0 28 4 28 25 0 52 -61 80 -117 53z"/>
<path d="M4520 5255 c-16 -19 -9 -49 14 -53 26 -5 40 12 32 42 -7 29 -27 34
-46 11z"/>
<path d="M6257 5173 l1 -98 49 -3 c38 -3 46 -1 36 9 -9 9 -13 44 -13 101 l0
88 -37 0 -38 0 2 -97z"/>
<path d="M6450 5255 c-19 -23 -8 -50 20 -50 16 0 26 6 28 18 4 18 -14 47 -28
47 -4 0 -13 -7 -20 -15z"/>
<path d="M7091 5248 c17 -34 19 -34 19 -5 0 18 -5 27 -15 27 -13 0 -14 -4 -4
-22z"/>
<path d="M7950 5243 c0 -23 2 -25 13 -12 6 7 18 20 26 27 12 10 10 12 -12 12
-23 0 -27 -4 -27 -27z"/>
<path d="M7998 5180 c-21 -49 -38 -94 -38 -100 0 -5 16 -10 35 -10 23 0 35 5
35 14 0 8 13 43 29 78 47 107 48 108 9 108 -32 0 -34 -3 -70 -90z"/>
<path d="M5671 5113 c-1 -17 -7 -34 -13 -36 -7 -3 3 -6 22 -6 22 0 30 2 22 8
-7 4 -17 21 -22 37 l-8 29 -1 -32z"/>
<path d="M3952 5121 c-25 -16 -10 -46 23 -46 25 0 30 4 30 25 0 27 -28 38 -53
21z"/>
<path d="M6960 5106 c0 -16 6 -26 14 -26 9 0 12 7 9 20 -8 31 -23 34 -23 6z"/>
<path d="M8090 5120 c0 -5 -10 -18 -22 -30 l-22 -20 26 0 c21 0 27 6 30 30 3
17 1 30 -4 30 -4 0 -8 -4 -8 -10z"/>
<path d="M4503 4788 c-13 -19 -43 -88 -38 -88 13 0 75 68 75 82 0 21 -23 24
-37 6z"/>
<path d="M7387 4751 c-15 -27 -27 -52 -27 -55 0 -4 18 10 40 30 22 21 40 45
40 56 0 34 -27 18 -53 -31z"/>
<path d="M4092 4773 c-29 -4 -31 -6 -17 -19 10 -10 15 -35 15 -69 0 -54 0 -54
-24 -44 -34 16 -88 3 -115 -25 -54 -57 -44 -198 15 -225 31 -14 94 -14 94 0 0
5 -5 7 -10 4 -37 -23 -80 41 -80 118 0 100 56 160 104 111 19 -18 23 -155 6
-199 -7 -17 -7 -24 0 -20 6 3 10 -1 10 -9 0 -17 20 -19 60 -6 17 5 19 8 8 9
-17 1 -18 17 -18 191 0 105 -3 189 -7 188 -5 0 -23 -3 -41 -5z"/>
<path d="M4666 4772 c-33 -3 -36 -5 -21 -16 15 -11 17 -33 15 -181 0 -110 -5
-172 -12 -176 -6 -4 11 -9 38 -11 48 -4 71 0 47 9 -10 4 -13 50 -13 188 0 101
-3 185 -7 187 -5 2 -25 2 -47 0z"/>
<path d="M6610 4770 c-23 -3 -31 -8 -22 -13 9 -6 12 -54 12 -182 0 -129 -3
-175 -12 -178 -7 -3 12 -6 42 -6 33 0 50 3 42 8 -11 6 -13 48 -13 182 1 96 -2
179 -6 184 -5 6 -24 8 -43 5z"/>
<path d="M7571 4772 c-25 -3 -31 -6 -20 -12 11 -7 15 -44 17 -173 3 -142 1
-167 -13 -181 -9 -9 -12 -16 -6 -17 43 -3 82 -1 88 4 3 4 1 7 -5 7 -9 0 -12
51 -12 184 0 102 -3 186 -7 188 -5 2 -23 2 -42 0z"/>
<path d="M4234 4755 c-10 -25 4 -45 31 -45 30 0 43 24 25 45 -16 19 -49 19
-56 0z"/>
<path d="M6973 4759 c15 -9 17 -29 17 -195 0 -145 3 -184 13 -180 6 3 20 9 30
12 15 6 17 24 17 190 l0 184 -47 0 c-38 -1 -44 -3 -30 -11z"/>
<path d="M3194 4731 c-73 -33 -112 -112 -100 -200 13 -95 74 -152 160 -150 52
1 50 3 -15 13 -29 5 -40 14 -59 49 -20 34 -24 56 -24 117 0 46 7 89 16 112 41
93 161 83 196 -17 10 -28 10 -26 11 25 1 39 -2 51 -10 43 -8 -8 -22 -6 -53 8
-51 23 -71 23 -122 0z"/>
<path d="M6023 4740 c-28 -12 -30 -46 -3 -53 23 -6 35 8 35 41 1 24 0 25 -32
12z"/>
<path d="M5830 4733 c-45 -17 -65 -69 -37 -97 29 -29 97 -51 82 -26 -4 6 -12
10 -18 9 -28 -3 -36 3 -42 31 -9 40 15 77 52 83 26 4 26 4 3 5 -14 0 -32 -2
-40 -5z"/>
<path d="M6100 4720 c43 -43 20 -64 -112 -104 -109 -33 -141 -70 -105 -121 13
-16 14 -15 10 11 -5 35 5 41 115 75 39 12 83 32 97 45 30 28 33 74 7 97 -26
24 -36 21 -12 -3z"/>
<path d="M6301 4733 c24 -6 29 -33 29 -180 0 -118 -2 -134 -19 -150 -19 -18
-18 -18 42 -18 59 0 61 1 45 18 -16 15 -18 37 -18 166 0 164 -1 161 64 161 41
0 67 -19 82 -61 l12 -34 1 53 1 52 -127 -1 c-71 -1 -121 -3 -112 -6z"/>
<path d="M5892 4709 c-12 -18 -11 -24 0 -36 18 -17 48 -7 48 16 0 16 -18 41
-30 41 -3 0 -11 -10 -18 -21z"/>
<path d="M3533 4643 c37 -6 43 -27 42 -141 -1 -69 2 -98 12 -108 17 -16 42
-18 63 -4 13 8 13 10 -2 10 -14 0 -17 15 -20 106 -3 97 -5 107 -27 125 -14 12
-37 18 -60 18 -31 -2 -32 -3 -8 -6z"/>
<path d="M3725 4639 c-22 -3 -32 -7 -22 -8 15 -1 17 -14 17 -115 0 -80 -4
-116 -12 -118 -26 -9 9 -13 57 -7 28 3 43 7 34 7 -28 3 -40 122 -19 178 8 20
8 29 -1 35 -6 4 -9 11 -5 17 9 16 -4 19 -49 11z"/>
<path d="M3835 4618 c0 -28 3 -33 25 -33 19 0 26 6 28 24 4 24 -11 41 -38 41
-10 0 -15 -10 -15 -32z"/>
<path d="M4240 4641 c-27 -5 -31 -8 -17 -13 15 -6 17 -22 17 -112 0 -89 -3
-107 -17 -115 -14 -8 -3 -10 42 -10 33 1 52 3 43 6 -16 4 -18 19 -18 129 0 68
-3 123 -7 123 -5 -1 -24 -4 -43 -8z"/>
<path d="M4431 4639 c-51 -20 -76 -88 -62 -165 12 -65 46 -94 108 -94 78 0
123 52 123 144 0 38 -37 101 -67 115 -29 13 -69 13 -102 0z m85 -20 c13 -14
20 -40 22 -88 5 -84 -15 -141 -50 -141 -48 0 -68 38 -68 127 0 103 48 155 96
102z"/>
<path d="M4841 4633 c-69 -36 -81 -165 -21 -225 24 -23 37 -28 78 -28 42 0 55
5 80 29 52 52 51 160 -2 210 -33 31 -92 37 -135 14z m95 -14 c26 -28 32 -141
11 -192 -14 -31 -21 -37 -46 -37 -41 0 -61 39 -61 120 0 112 46 164 96 109z"/>
<path d="M5100 4638 c-31 -17 -47 -59 -34 -94 8 -23 17 -31 53 -51 2 -1 -6
-13 -17 -28 -39 -49 -12 -75 80 -75 33 0 50 -5 56 -16 23 -42 -17 -74 -92 -74
-50 0 -71 18 -64 55 6 30 -3 32 -28 4 -19 -21 -18 -21 9 -45 55 -47 186 -23
215 39 27 56 -10 87 -103 87 -48 0 -55 3 -55 20 0 14 11 22 43 31 64 17 78 34
76 94 -2 38 -6 51 -18 53 -9 1 -34 4 -56 7 -24 3 -50 0 -65 -7z m80 -17 c15
-29 12 -97 -5 -111 -22 -19 -48 -8 -57 25 -7 27 -3 78 9 98 8 14 42 7 53 -12z"/>
<path d="M5259 4628 c10 -28 36 -35 45 -13 9 23 -1 35 -29 35 -21 0 -23 -3
-16 -22z"/>
<path d="M5393 4640 c-79 -32 -84 -214 -7 -249 61 -27 134 -7 159 44 32 69 9
175 -45 202 -29 15 -75 16 -107 3z m95 -30 c18 -36 12 -197 -8 -210 -28 -18
-59 -11 -77 16 -25 38 -25 160 0 198 23 35 65 33 85 -4z"/>
<path d="M6782 4637 c-54 -26 -78 -132 -45 -201 28 -60 120 -76 167 -29 32 31
27 44 -5 14 -13 -12 -28 -21 -35 -21 -26 0 -62 23 -73 47 -16 35 -14 129 4
163 20 39 57 41 73 5 23 -49 16 -63 -30 -68 -31 -2 -24 -4 25 -5 65 -2 67 -1
67 22 0 14 -12 38 -26 55 -20 25 -33 31 -62 30 -21 0 -47 -5 -60 -12z"/>
<path d="M7085 4641 c-17 -7 -15 -9 15 -12 45 -5 60 -34 60 -119 0 -75 -15
-111 -50 -121 -23 -6 -22 -7 8 -8 43 -1 88 42 97 93 10 49 -2 116 -25 144 -21
25 -73 37 -105 23z"/>
<path d="M7334 4640 c-12 -4 -31 -21 -44 -37 -19 -24 -21 -38 -18 -99 3 -72
12 -89 55 -112 27 -15 85 -15 116 -1 31 14 48 50 54 114 10 105 -71 172 -163
135z m93 -30 c15 -30 17 -148 3 -185 -11 -30 -31 -39 -65 -31 -18 5 -27 17
-36 49 -14 54 -7 138 15 172 22 34 65 31 83 -5z"/>
<path d="M7724 4616 c-34 -34 -39 -54 -35 -126 6 -89 77 -131 169 -99 56 19
80 128 44 199 -20 41 -53 60 -105 60 -31 0 -46 -7 -73 -34z m103 16 c34 -21
45 -159 18 -212 -16 -30 -46 -39 -73 -22 -42 27 -40 206 2 234 14 10 38 10 53
0z"/>
<path d="M8002 4640 c-51 -22 -48 -115 5 -139 l26 -12 -21 -15 c-13 -9 -22
-26 -22 -40 0 -29 31 -44 94 -44 54 0 74 -19 58 -55 -13 -28 -41 -38 -102 -33
-51 4 -72 27 -52 58 10 16 10 20 -2 20 -19 0 -38 -26 -34 -47 7 -40 114 -57
181 -30 61 26 75 101 22 125 -14 7 -48 12 -75 12 -27 0 -52 5 -55 10 -10 17
13 37 49 44 37 7 65 32 67 62 4 44 -2 81 -13 82 -7 1 -33 4 -58 7 -25 2 -55 0
-68 -5z m82 -16 c3 -9 6 -33 6 -54 0 -51 -8 -70 -30 -70 -25 0 -40 22 -42 61
-2 53 10 79 37 79 12 0 26 -7 29 -16z"/>
<path d="M8159 4628 c10 -29 46 -31 46 -3 0 14 -8 21 -27 23 -25 3 -27 1 -19
-20z"/>
<path d="M8290 4638 c-53 -28 -75 -122 -46 -192 19 -46 52 -66 107 -66 37 0
52 5 73 27 33 33 40 59 34 129 -4 42 -11 61 -30 81 -31 30 -100 41 -138 21z
m94 -20 c32 -51 32 -181 0 -213 -24 -23 -61 -18 -80 10 -20 31 -17 182 5 208
19 24 58 21 75 -5z"/>
<path d="M3463 4625 c-32 -36 1 -85 35 -52 14 14 14 20 2 42 -15 29 -20 30
-37 10z"/>
<path d="M3800 4629 c0 -5 5 -7 10 -4 6 3 10 8 10 11 0 2 -4 4 -10 4 -5 0 -10
-5 -10 -11z"/>
<path d="M6460 4605 c0 -8 -10 -23 -22 -35 -17 -16 -18 -20 -6 -20 14 0 29
-20 32 -42 1 -3 4 -9 8 -13 3 -3 5 23 5 59 -1 36 -5 66 -9 66 -5 0 -8 -7 -8
-15z"/>
<path d="M5778 4586 c-10 -7 -24 -28 -32 -47 -12 -29 -12 -40 -1 -72 22 -65
79 -92 182 -85 60 4 68 7 99 41 38 41 46 97 19 133 -13 17 -13 16 -3 -13 26
-69 -29 -123 -124 -123 -90 0 -138 35 -138 102 0 24 7 49 17 60 19 21 6 24
-19 4z"/>
<path d="M5944 4526 c-4 -9 -1 -23 5 -30 10 -11 8 -15 -6 -19 -15 -4 -15 -5 3
-6 29 -1 57 22 52 45 -4 24 -46 32 -54 10z"/>
<path d="M3515 4517 c-65 -26 -75 -36 -75 -76 0 -29 5 -40 24 -50 25 -14 81
-7 92 11 4 6 -1 8 -15 3 -56 -18 -70 58 -18 99 36 29 35 30 -8 13z"/>
<path d="M3364 4465 c-3 -20 -17 -44 -31 -55 -28 -22 -23 -26 9 -9 16 9 23 8
29 -2 5 -9 9 8 9 44 0 65 -6 73 -16 22z"/>
</g>
</svg>
